<svg fill="none" height="25" viewBox="0 0 16 25" width="16" xmlns="http://www.w3.org/2000/svg"><path d="m14.4201 15.7302h-9.30467l.46719-.9516 7.76248-.014c.2625 0 .4875-.1875.5344-.4469l1.075-6.0172c.0281-.15781-.0141-.32031-.1172-.44375-.051-.06075-.1145-.10968-.1863-.14341s-.15-.05144-.2293-.0519l-9.87502-.03281-.08438-.39688c-.05312-.25312-.28125-.4375-.54062-.4375h-2.41406c-.14629 0-.28658.05811-.39002.16155-.10343.10344-.161545.24373-.161545.39001 0 .14629.058115.28658.161545.39002.10344.10343.24373.16155.39002.16155h1.96718l.36875 1.75312.90782 4.3953-1.16875 1.9078c-.0607.0819-.09726.1792-.10554.2808s.01204.2036.05866.2942c.09375.186.28281.3032.49219.3032h.98125c-.20919.2778-.32218.6162-.32188.964 0 .8844.71875 1.6031 1.60313 1.6031.88437 0 1.60312-.7187 1.60312-1.6031 0-.3484-.11562-.6875-.32187-.964h2.51722c-.20922.2778-.32221.6162-.32191.964 0 .8844.71871 1.6031 1.60311 1.6031s1.6031-.7187 1.6031-1.6031c0-.3484-.1156-.6875-.3218-.964h1.7703c.3031 0 .5515-.2469.5515-.5516-.0009-.1461-.0595-.286-.1632-.389-.1036-.1031-.2437-.1609-.3899-.161zm-9.64373-7.01407 8.99683.02968-.8812 4.93439-7.0672.0125zm1.51406 9.57347c-.27188 0-.49375-.2219-.49375-.4938s.22187-.4937.49375-.4937c.27187 0 .49375.2218.49375.4937 0 .131-.05202.2566-.14462.3491-.09259.0926-.21818.1447-.34913.1447zm5.07967 0c-.2719 0-.4937-.2219-.4937-.4938s.2218-.4937.4937-.4937.4938.2218.4938.4937c0 .131-.0521.2566-.1446.3491-.0926.0926-.2182.1447-.3492.1447z" fill="#fff"/></svg>