<svg fill="none" height="13" viewBox="0 0 15 13" width="15" xmlns="http://www.w3.org/2000/svg"><path d="m14.4201 8.96719h-9.30473l.46719-.95157 7.76254-.01406c.2625 0 .4875-.1875.5343-.44687l1.075-6.01719c.0282-.15781-.014-.32031-.1172-.44375-.0509-.06075-.1145-.109685-.1863-.143411-.0717-.033726-.15-.051436-.2293-.051901l-9.87498-.032813-.08438-.396875c-.05312-.253125-.28125-.4375-.54062-.4375h-2.41406c-.14629 0-.28658.0581108-.39002.161549-.10344.103438-.161546.24373-.161546.390014 0 .146283.058106.286575.161546.390013.10344.103434.24373.161554.39002.161554h1.96718l.36875 1.75312.90782 4.39531-1.16875 1.90782c-.0607.08191-.09726.17918-.10554.2808s.01204.20353.05866.29419c.09375.18594.28281.30318.49219.30318h.98125c-.20919.2778-.32218.6162-.32188.964 0 .8844.71875 1.6031 1.60313 1.6031.88437 0 1.60312-.7187 1.60312-1.6031 0-.3484-.11562-.6875-.32187-.964h2.51718c-.20918.2778-.32218.6162-.32187.964 0 .8844.71877 1.6031 1.60317 1.6031.8843 0 1.6031-.7187 1.6031-1.6031 0-.3484-.1156-.6875-.3219-.964h1.7703c.3031 0 .5516-.24693.5516-.55161-.0009-.14613-.0596-.28597-.1632-.38901s-.2438-.16091-.3899-.16099zm-9.64379-7.01407 8.99689.02969-.8813 4.93438-7.06716.0125zm1.51406 9.57348c-.27188 0-.49375-.2219-.49375-.4938s.22187-.4937.49375-.4937c.27187 0 .49375.2218.49375.4937 0 .131-.05202.2566-.14462.3491-.09259.0926-.21818.1447-.34913.1447zm5.07973 0c-.2719 0-.4938-.2219-.4938-.4938s.2219-.4937.4938-.4937c.2718 0 .4937.2218.4937.4937 0 .131-.052.2566-.1446.3491-.0926.0926-.2182.1447-.3491.1447z" fill="#8c8c8c"/></svg>