<svg fill="none" height="16" viewBox="0 0 16 16" width="16" xmlns="http://www.w3.org/2000/svg"><path d="m15.6377 7.87727-6.79222-6.78867-.45527-.455273c-.10373-.103049-.24402-.160884-.39024-.160884-.14621 0-.2865.057835-.39023.160884l-7.24746 7.243943c-.106293.10588-.190298.23198-.247057.37086-.0567586.13888-.0851206.28772-.0834119.43774.0070313.61875.5220699 1.11269 1.1408189 1.11269h.74707v5.72524h12.1605v-5.72524h.7629c.3006 0 .5836-.11777.7963-.33047.1048-.10439.1877-.22852.2442-.36521.0564-.13668.0851-.2832.0845-.43108 0-.29882-.1177-.58183-.3304-.79453zm-6.65335 6.38083h-1.96875v-3.5859h1.96875zm3.83025-5.72516v5.72516h-2.7053v-4.0078c0-.38846-.3146-.70311-.70308-.70311h-2.8125c-.38847 0-.70312.31465-.70312.70311v4.0078h-2.70527v-5.72516h-1.6875l6.5039-6.49864.40606.40606 6.09611 6.09258z" fill="#8c8c8c"/></svg>