<svg fill="none" height="26" viewBox="0 0 26 26" width="26" xmlns="http://www.w3.org/2000/svg" xmlns:xlink="http://www.w3.org/1999/xlink"><linearGradient id="a"><stop offset="0" stop-color="#ffc107"/><stop offset=".507" stop-color="#f44336"/><stop offset=".99" stop-color="#9c27b0"/></linearGradient><linearGradient id="b" gradientUnits="userSpaceOnUse" x1="3.23627" x2="23.6592" xlink:href="#a" y1="23.0265" y2="2.60318"/><linearGradient id="c" gradientUnits="userSpaceOnUse" x1="9.02846" x2="17.8671" xlink:href="#a" y1="17.2341" y2="8.39552"/><linearGradient id="d" gradientUnits="userSpaceOnUse" x1="19.5777" x2="20.7554" xlink:href="#a" y1="6.6851" y2="5.50728"/><path d="m18.1353.314819h-9.37505c-4.31406 0-7.812496 3.498441-7.812496 7.812501v9.37498c0 4.3141 3.498436 7.8125 7.812496 7.8125h9.37505c4.314 0 7.8125-3.4984 7.8125-7.8125v-9.37498c0-4.31406-3.4985-7.812501-7.8125-7.812501zm5.4687 17.187481c0 3.0156-2.4531 5.4688-5.4687 5.4688h-9.37505c-3.01562 0-5.46875-2.4532-5.46875-5.4688v-9.37498c0-3.01563 2.45313-5.46875 5.46875-5.46875h9.37505c3.0156 0 5.4687 2.45312 5.4687 5.46875z" fill="url(#b)"/><path d="m13.4478 6.56482c-3.45161 0-6.25005 2.79844-6.25005 6.24998 0 3.4516 2.79844 6.25 6.25005 6.25 3.4515 0 6.25-2.7984 6.25-6.25 0-3.45154-2.7985-6.24998-6.25-6.24998zm0 10.15628c-2.1532 0-3.9063-1.7532-3.9063-3.9063 0-2.1547 1.7531-3.90623 3.9063-3.90623 2.1531 0 3.9062 1.75153 3.9062 3.90623 0 2.1531-1.7531 3.9063-3.9062 3.9063z" fill="url(#c)"/><path d="m20.1666 6.92892c.4599 0 .8328-.37286.8328-.83281 0-.45994-.3729-.8328-.8328-.8328-.46 0-.8329.37286-.8329.8328 0 .45995.3729.83281.8329.83281z" fill="url(#d)"/></svg>