<svg fill="none" height="37" viewBox="0 0 101 37" width="101" xmlns="http://www.w3.org/2000/svg"><g fill="#000"><path d="m12.2787 6.56271h-2.1392v1.06959h2.1392z"/><path d="m12.2787 8.70187h-2.1392v1.06959h2.1392z"/><path d="m12.2787 10.841h-2.1392v1.0696h2.1392z"/><path d="m19.7658 7.0975h-1.0696c-.0003.28357-.1131.55543-.3136.75594-.2005.20052-.4724.31331-.756.31365v1.06958c.5672-.00064 1.1109-.22622 1.512-.62725.401-.40103.6266-.94477.6272-1.51192z"/><path d="m22.4398 9.77146v-1.06958c-.2835-.00034-.5554-.11313-.7559-.31365-.2005-.20051-.3133-.47237-.3137-.75594h-1.0695c.0006.56715.2262 1.11089.6272 1.51192s.9448.62661 1.5119.62725z"/><path d="m28.0545 33.0505c-.9028.1641-1.8237.2052-2.7376.1223l-9.2987-.8454c-.1495-.0136-.2879-.0843-.3866-.1974s-.15-.2599-.1432-.4098.0711-.2915.1795-.3952c.1085-.1038.2528-.1617.4028-.1618h7.1712c.3546-.0006.6946-.1418.9452-.3927.2507-.2509.3916-.5909.3918-.9456v-.0125c-.0006-.281-.0918-.5543-.26-.7794l-1.2245-1.632c-.0776-.1038-.1196-.2299-.1199-.3595v-.0918c0-.1186.0352-.2345.1011-.3331.0658-.0986.1595-.1755.2691-.2209.1095-.0454.2301-.0572.3464-.0341.1164.0231.2232.0802.3071.1641l2.3417 2.3417c.0497.0496.1086.089.1735.1159s.1344.0407.2047.0407h5.8827v-1.0696h-5.6613l-2.1849-2.1851c-.055-.0548-.1137-.1059-.1757-.1527v-12.1016c0-.1418-.0564-.2778-.1566-.3781-.1003-.1003-.2364-.1567-.3782-.1567h-.5348v-1.6043h.8022c.4964 0 .9725-.1972 1.3235-.5483.3511-.351.5483-.8271.5483-1.32351 0-.49643-.1972-.97252-.5483-1.32355-.351-.35102-.8271-.54823-1.3235-.54823h-.0553c.2678-.32083.4054-.7304.3859-1.14782-.0196-.41741-.195-.81231-.4916-1.10666-.2966-.29436-.6929-.46678-1.1104-.48319-.4176-.01641-.8261.12438-1.1449.39455-.0506-.52972-.2968-1.02156-.6905-1.37949-.3938-.35794-.9068-.55627-1.4389-.55627-.5322 0-1.0452.19833-1.4389.55627-.3938.35793-.64.84977-.6906 1.37949-.3188-.27017-.7273-.41096-1.1449-.39455-.4175.01641-.8137.18883-1.1103.48319-.2966.29435-.4721.68925-.4916 1.10666-.0196.41742.1181.82699.3858 1.14782h-.0553c-.2775-.00025-.5516.06158-.8022.18096v-2.32012c0-.85102-.338-1.66718-.9398-2.26893-.6017-.60176-1.4179-.93983-2.2689-.93983s-1.66719.33807-2.26894.93983c-.60176.60175-.93983 1.41791-.93983 2.26893v7.48705h-.53479c-.14183 0-.27786.0564-.37815.1567-.1003.1003-.15664.2363-.15664.3781v2.3516l-2.87177 2.4616h-3.545735v1.0695h3.743545c.12765 0 .25109-.0456.34801-.1287l3.09966-2.6569c.31866-.2729.72439-.423 1.14399-.4231.0438 0 .08662.013.12304.0373.03642.0244.0648.059.08156.0994.01676.0405.02114.085.01259.128s-.02965.0824-.06063.1134l-1.91763 1.9177c-.0748.0748-.12574.1701-.14637.2738-.02064.1038-.01005.2113.03043.309s.10903.1813.19698.24c.08795.0588.19135.0901.29712.0901h5.61536c.0709 0 .1389.0282.189.0784.0502.0501.0784.1181.0784.189 0 .071-.0282.139-.0784.1891-.0501.0502-.1181.0783-.189.0783h-4.01098c-.14184 0-.27786.0564-.37816.1567-.10029.1003-.15663.2363-.15663.3781 0 .1419.05634.2779.15663.3782.1003.1003.23632.1566.37816.1566h5.61528c.071 0 .139.0282.1891.0783.0502.0502.0783.1182.0783.1891s-.0281.1389-.0783.1891c-.0501.0501-.1181.0783-.1891.0783h-5.61528c-.14184 0-.27786.0564-.37816.1566-.10029.1003-.15663.2364-.15663.3782s.05634.2779.15663.3782c.1003.1002.23632.1566.37816.1566h4.54578c.0709 0 .1389.0282.189.0783.0502.0502.0783.1182.0783.1891s-.0281.1389-.0783.1891c-.0501.0501-.1181.0783-.189.0783h-4.54578c-.14184 0-.27786.0563-.37816.1566-.10029.1003-.15663.2363-.15663.3782 0 .1418.05634.2778.15663.3781.1003.1003.23632.1567.37816.1567h2.64058c.0082.0004.0159.0038.0218.0096.0058.0058.0094.0135.0099.0217s-.0021.0163-.0072.0228c-.0051.0064-.0124.0108-.0205.0122l-3.67232.459-3.63832-1.0395c-.04783-.0137-.09733-.0206-.14707-.0206h-3.743545v1.0696h3.668675l2.74883.7854v5.0973h.00127c-.00051.0702.01294.1399.03956.2049.02662.0651.06587.1242.1155.1739s.10863.0891.1736.1159c.06496.0268.1346.0404.20486.0401h7.05926c-.09.2382-.1237.4941-.0985.7475.0252.2535.1087.4977.2439.7135.1353.2159.3185.3975.5356.5308.217.1333.4619.2146.7156.2376l9.2986.8456c.3384.0309.6773.0463 1.0167.0462.6738 0 1.3462-.0606 2.0091-.1811l4.4506-.8093-.1913-1.0523zm-14.7062-22.2094c.0001-.1418.0565-.2778.1568-.378.1002-.1003.2362-.1567.3779-.1568h1.0696c.5672.0006 1.1109.2262 1.5119.6272.4011.4011.6267.9448.6273 1.5119-.0002.1418-.0566.2778-.1568.378-.1003.1003-.2362.1567-.378.1568h-1.0696c-.5671-.0006-1.1109-.2262-1.5119-.6272s-.6266-.9448-.6272-1.5119zm1.8717-2.1392h1.337c.1058 0 .2092-.03136.2971-.09012.088-.05877.1565-.14229.197-.24002.0405-.09772.0511-.20525.0304-.30899-.0206-.10374-.0715-.19904-.1463-.27383l-.8022-.80219c-.0557-.05568-.0999-.12179-.13-.19454s-.0457-.15073-.0457-.22948.0156-.15673.0457-.22948.0743-.13886.13-.19454c.0557-.05569.1218-.09986.1945-.12999.0728-.03014.1508-.04565.2295-.04565.0788 0 .1567.01551.2295.04565.0727.03013.1388.0743.1945.12999l.8022.80218c.0748.0748.1701.12574.2738.14637.1038.02064.2113.01005.309-.03043.0978-.04048.1813-.10903.2401-.19698.0587-.08795.0901-.19135.0901-.29712v-1.06958c0-.28368.1127-.55573.3132-.75631.2006-.20059.4727-.31328.7564-.31328.2836 0 .5557.11269.7563.31328.2006.20058.3132.47263.3132.75631v1.06958c0 .10577.0314.20917.0902.29712.0587.08795.1423.1565.24.19698s.2052.05107.309.03043c.1037-.02063.199-.07157.2738-.14637l.8022-.80218c.0557-.05569.1218-.09986.1945-.12999.0728-.03014.1508-.04565.2295-.04565.0788 0 .1567.01551.2295.04565.0727.03013.1388.0743.1945.12999.0557.05568.0999.12179.13.19454.0302.07275.0457.15073.0457.22948s-.0155.15673-.0457.22948c-.0301.07275-.0743.13886-.13.19454l-.8022.80219c-.0748.07479-.1257.17009-.1463.27383-.0207.10374-.0101.21127.0304.30899.0405.09773.109.18125.197.24002.0879.05876.1913.09012.2971.09012h1.337c.2127 0 .4168.08451.5672.23495.1505.15044.235.35448.235.56724 0 .21275-.0845.41679-.235.56721-.1504.1505-.3545.235-.5672.235h-1.337c-.1418 0-.2779.0563-.3781.1566-.1003.1003-.1567.2363-.1567.3782v.2848c-.624-.5604-1.443-.8536-2.2809-.8165-.838.0372-1.6278.4016-2.1998 1.0151-.2292-.6126-.6398-1.1406-1.177-1.51369-.5372-.37305-1.1754-.57334-1.8294-.57412h-.488c.0554-.1562.1577-.29145.2929-.3872.1353-.09575.2968-.14731.4625-.14759zm7.152 4.2783h-4.1429c.1184-.4593.3862-.8663.7612-1.1569.3749-.2906.8359-.4483 1.3103-.4483.4743 0 .9353.1577 1.3102.4483.375.2906.6428.6976.7612 1.1569zm-13.30208-7.48705c0-.56735.22537-1.11145.62655-1.51262.40113-.40118.94523-.62655 1.51263-.62655.5673 0 1.1114.22537 1.5126.62655.4012.40117.6266.94527.6266 1.51262v3.83552c-.3126.11091-.5832.31581-.7747.58658-.1915.27075-.2945.59415-.2949.92585-.0006.7898.2914 1.5519.8196 2.1391h-4.02838zm1.06958 8.55665h1.0696v4.2784h-1.0696zm-1.29105 1.0696c-.28771.0001-.57371.0442-.84812.1306v-1.2002h1.06959v1.09c-.0731-.0131-.1472-.02-.22147-.0204zm.22147 2.8955v.3133h-.31332zm1.06958 7.5371 1.0696-.1337v3.9189l-1.0696-1.0696zm-2.07285.2591 1.00327-.1254v2.582l-1.06959 1.0696v-3.5221c.02217 0 .04432-.0014.06632-.0041zm.68995 4.2825.84811-.8481.84809.8481zm3.5221-4.9057c.1628-.0979.2976-.2363.3913-.4016.0937-.1654.1431-.3521.1435-.5421 0-.0112 0-.0223-.0006-.0335h.8028c.2-.0001.3974-.045.5778-.1315.1803-.0865.339-.2124.4643-.3683.1253-.156.214-.338.2596-.5328.0456-.1947.0469-.3972.0039-.5926.3289-.059.6237-.2389.8265-.5044s.2989-.5973.2693-.9301-.1828-.6424-.4293-.8679-.5685-.3506-.9026-.3506h-.2941c.0395-.1942.0353-.3948-.0122-.5873-.0476-.1924-.1373-.3719-.2627-.5254-.1253-.1535-.2833-.2773-.4623-.3623-.1791-.085-.3748-.1292-.573-.1293h-.8022v-4.2784h11.2306v11.2323c-.4309.0173-.8385.2004-1.1375.5112s-.4663.7252-.4669 1.1564v.0918c.0008.3611.118.7123.3343 1.0016l1.2244 1.6317c.0297.0398.0458.088.0459.1376v.0125c.0001.0711-.028.1393-.0782.1897s-.1183.0788-.1894.079h-10.9632z"/><path d="m45.2378 14.2844v-10.66407h3.0102c.9278 0 1.7481.20508 2.461.61524.7129.41015 1.2622.99365 1.6479 1.75048.3907.75684.5884 1.62598.5933 2.60743v.68115c0 1.00587-.1953 1.88717-.5859 2.64407-.3858.7568-.94 1.3379-1.6626 1.7431-.7178.4053-1.5552.6128-2.5122.6226zm1.4062-9.50684v8.35694h1.4795c1.084 0 1.9263-.3369 2.5269-1.0108.6055-.6738.9082-1.6333.9082-2.87837v-.62256c0-1.21094-.2857-2.15088-.8569-2.81982-.5664-.67383-1.3721-1.01563-2.417-1.02539zm11.5137 9.65334c-1.0742 0-1.9482-.3516-2.6221-1.0547-.6738-.708-1.0107-1.6528-1.0107-2.8345v-.249c0-.78614.1489-1.48682.4468-2.10206.3027-.62011.7226-1.10351 1.2597-1.45019.542-.35156 1.128-.52735 1.7579-.52735 1.0302 0 1.831.33936 2.4023 1.01807s.8569 1.65039.8569 2.91503v.564h-5.3686c.0195.7812.2466 1.4135.6811 1.8969.4395.4786.9961.7178 1.67.7178.4785 0 .8837-.0976 1.2158-.2929.332-.1954.6225-.4541.8716-.7764l.8276.6445c-.6641 1.0205-1.6602 1.5308-2.9883 1.5308zm-.1684-7.10451c-.5469 0-1.0059.20019-1.377.60058-.3711.39551-.6006.95215-.6885 1.66992h3.9698v-.10254c-.0391-.68847-.2247-1.2207-.5567-1.59668-.332-.38085-.7812-.57128-1.3476-.57128zm6.3061 6.95801h-1.355v-11.25001h1.355zm3.6475 0h-1.355v-7.92481h1.355zm-1.4649-10.02686c0-.21973.0659-.40528.1978-.55664.1367-.15137.3369-.22705.6006-.22705.2636 0 .4638.07568.6006.22705.1367.15136.205.33691.205.55664 0 .21972-.0683.40283-.205.54931-.1368.14649-.337.21973-.6006.21973-.2637 0-.4639-.07324-.6006-.21973-.1319-.14648-.1978-.32959-.1978-.54931zm6.2549 8.18846 1.9629-6.08641h1.3843l-2.8418 7.92481h-1.0327l-2.8711-7.92481h1.3843zm7.8369 1.9849c-1.0742 0-1.9482-.3516-2.622-1.0547-.6739-.708-1.0108-1.6528-1.0108-2.8345v-.249c0-.78614.1489-1.48682.4468-2.10206.3027-.62011.7226-1.10351 1.2598-1.45019.5419-.35156 1.1279-.52735 1.7578-.52735 1.0302 0 1.831.33936 2.4023 1.01807s.8569 1.65039.8569 2.91503v.564h-5.3686c.0195.7812.2466 1.4135.6811 1.8969.4395.4786.9961.7178 1.67.7178.4785 0 .8838-.0976 1.2158-.2929.332-.1954.6225-.4541.8716-.7764l.8276.6445c-.6641 1.0205-1.6602 1.5308-2.9883 1.5308zm-.1684-7.10451c-.5469 0-1.0059.20019-1.377.60058-.3711.39551-.6006.95215-.6885 1.66992h3.9698v-.10254c-.0391-.68847-.2246-1.2207-.5567-1.59668-.332-.38085-.7812-.57128-1.3476-.57128zm8.6645.24902c-.2051-.03418-.4272-.05127-.6665-.05127-.8887 0-1.4917.37842-1.8091 1.13525v5.62501h-1.3549v-7.92481h1.3183l.022.91553c.4443-.70801 1.0742-1.06202 1.8896-1.06202.2637 0 .4639.03418.6006.10254zm3.9771 4.72409 1.8457-5.93991h1.4502l-3.1861 9.14791c-.4931 1.3184-1.2768 1.9776-2.351 1.9776l-.2564-.022-.5054-.0952v-1.0986l.3662.0293c.459 0 .8155-.0928 1.0694-.2784.2588-.1855.4712-.5249.6372-1.018l.3003-.8057-2.8272-7.83691h1.4795zm-41.9239 15.2754h-4.4751v4.7095h-1.4062v-10.6641h6.6064v1.1573h-5.2002v3.6474h4.4751zm1.6773.6738c0-.7763.1514-1.4746.4541-2.0947.3076-.6201.7324-1.0986 1.2744-1.4355.5469-.3369 1.1694-.5054 1.8677-.5054 1.0791 0 1.9507.3735 2.6147 1.1206.669.7471 1.0034 1.7407 1.0034 2.981v.0952c0 .7715-.1489 1.4648-.4467 2.0801-.293.6103-.7154 1.0864-1.2671 1.4282-.5469.3418-1.1768.5127-1.8897.5127-1.0742 0-1.9458-.3736-2.6147-1.1206-.6641-.7471-.9961-1.7359-.9961-2.9663zm1.3623.1612c0 .8789.2026 1.5845.6079 2.1167.4102.5322.957.7983 1.6406.7983.6885 0 1.2354-.2685 1.6407-.8056.4052-.542.6079-1.2989.6079-2.2706 0-.8691-.2076-1.5722-.6226-2.1093-.4102-.542-.957-.813-1.6406-.813-.669 0-1.2085.2661-1.6187.7983-.4101.5323-.6152 1.294-.6152 2.2852zm7.1924-.1612c0-.7763.1513-1.4746.4541-2.0947.3076-.6201.7324-1.0986 1.2744-1.4355.5469-.3369 1.1694-.5054 1.8677-.5054 1.0791 0 1.9506.3735 2.6147 1.1206.669.7471 1.0034 1.7407 1.0034 2.981v.0952c0 .7715-.1489 1.4648-.4467 2.0801-.293.6103-.7154 1.0864-1.2671 1.4282-.5469.3418-1.1768.5127-1.8897.5127-1.0742 0-1.9458-.3736-2.6147-1.1206-.6641-.7471-.9961-1.7359-.9961-2.9663zm1.3623.1612c0 .8789.2026 1.5845.6079 2.1167.4101.5322.957.7983 1.6406.7983.6885 0 1.2354-.2685 1.6406-.8056.4053-.542.6079-1.2989.6079-2.2706 0-.8691-.2075-1.5722-.6225-2.1093-.4102-.542-.957-.813-1.6406-.813-.669 0-1.2085.2661-1.6187.7983-.4101.5323-.6152 1.294-.6152 2.2852zm7.2217-.1538c0-1.2158.288-2.1924.8642-2.9297.5762-.7422 1.3306-1.1133 2.2632-1.1133.9277 0 1.6626.3174 2.2046.9522v-4.1309h1.355v11.25h-1.2451l-.066-.8496c-.542.664-1.2964.9961-2.2631.9961-.918 0-1.6675-.376-2.2486-1.128-.5762-.7519-.8642-1.7334-.8642-2.9443zm1.3549.1538c0 .8984.1856 1.6015.5567 2.1094.3711.5078.8838.7617 1.5381.7617.8593 0 1.4868-.3858 1.8823-1.1573v-3.6401c-.4053-.7471-1.0278-1.1206-1.8677-1.1206-.664 0-1.1816.2564-1.5527.769-.3711.5127-.5567 1.272-.5567 2.2779z"/></g></svg>