<svg fill="none" height="15" viewBox="0 0 15 15" width="15" xmlns="http://www.w3.org/2000/svg"><path d="m14.6515 6.24221c-.0962-.29745-.36-.50872-.6722-.53685l-4.23983-.38498-1.67655-3.92415c-.12362-.28759-.40516-.473745-.71797-.473745-.3128 0-.59434.186155-.71796.474425l-1.67656 3.92347-4.240537.38498c-.311574.02881-.57473.2394-.6714525.53685-.0967223.29745-.0073971.62371.2283005.82937l3.204839 2.81066-.94503 4.16286c-.06916.3061.04965.6225.30361.8061.13651.0986.29622.1488.45728.1488.13886 0 .2766-.0374.40022-.1114l3.65729-2.1858 3.65595 2.1858c.2675.1609.6048.1463.8582-.0374.254-.1842.3727-.5007.3036-.8061l-.945-4.16286 3.2048-2.8101c.2357-.20622.3257-.53192.229-.82993z" fill="#ffc107"/></svg>