<svg fill="none" height="18" viewBox="0 0 18 18" width="18" xmlns="http://www.w3.org/2000/svg"><path d="m15.9891 15.0205-4.5651-4.565c.7084-.91585 1.0916-2.03558 1.0916-3.21331 0-1.40977-.5502-2.73164-1.5451-3.72832-.99491-.99668-2.3203-1.54512-3.72831-1.54512s-2.7334.5502-3.72832 1.54512c-.99668.99492-1.54512 2.31855-1.54512 3.72832 0 1.40801.5502 2.7334 1.54512 3.72831.99492.9967 2.31855 1.5451 3.72832 1.5451 1.17773 0 2.2957-.3832 3.21151-1.0898l4.5651 4.5633c.0133.0134.0292.024.0467.0312.0175.0073.0363.011.0552.011s.0377-.0037.0552-.011c.0175-.0072.0334-.0178.0468-.0312l.7664-.7647c.0134-.0134.024-.0293.0312-.0468.0073-.0175.011-.0362.011-.0551 0-.019-.0037-.0377-.011-.0552-.0072-.0175-.0178-.0334-.0312-.0468zm-5.9625-4.9939c-.74535.7435-1.73324 1.1531-2.78441 1.1531s-2.03906-.4096-2.78438-1.1531c-.74355-.74535-1.15312-1.73324-1.15312-2.78441s.40957-2.04082 1.15312-2.78438c.74532-.74355 1.73321-1.15312 2.78438-1.15312s2.04082.40781 2.78441 1.15312c.7435.74532 1.1531 1.73321 1.1531 2.78438s-.4096 2.04082-1.1531 2.78441z" fill="#8c8c8c"/></svg>