<svg fill="none" height="14" viewBox="0 0 12 14" width="12" xmlns="http://www.w3.org/2000/svg"><path d="m11.4145 10.9312c-.2948-.6981-.7225-1.33229-1.2594-1.86714-.53527-.53639-1.16933-.96405-1.86719-1.25937-.00625-.00313-.0125-.00469-.01875-.00781.97343-.70313 1.60625-1.84844 1.60625-3.14063 0-2.14063-1.73438-3.875-3.875-3.875-2.14063 0-3.875 1.73437-3.875 3.875 0 1.29219.63281 2.4375 1.60625 3.14219-.00625.00312-.0125.00468-.01875.00781-.7.29531-1.32813.71875-1.86719 1.25938-.53639.53526-.964058 1.16937-1.259377 1.86717-.290122.6832-.446591 1.4157-.460938 2.1578-.000417.0167.002508.0333.008603.0488s.015236.0297.026885.0416c.01165.012.025571.0215.040944.0279.015373.0065.031887.0099.048568.0099h.937505c.06875 0 .12343-.0547.125-.1219.03125-1.2063.51562-2.336 1.37187-3.19221.88594-.88594 2.0625-1.37344 3.31563-1.37344 1.25312 0 2.42968.4875 3.31562 1.37344.85627.85621 1.34067 1.98591 1.37187 3.19221.0016.0687.0563.1219.125.1219h.9375c.0167 0 .0332-.0034.0486-.0099.0153-.0064.0293-.0159.0409-.0279.0117-.0119.0208-.0261.0269-.0416s.009-.0321.0086-.0488c-.0156-.7469-.1703-1.4734-.4609-2.1594zm-5.41409-3.58745c-.71719 0-1.39219-.27969-1.9-.7875-.50782-.50781-.7875-1.18281-.7875-1.9s.27968-1.39219.7875-1.9c.50781-.50781 1.18281-.7875 1.9-.7875.71718 0 1.39218.27969 1.9.7875.50781.50781.7875 1.18281.7875 1.9s-.27969 1.39219-.7875 1.9c-.50782.50781-1.18282.7875-1.9.7875z" fill="#fff"/></svg>