<svg fill="none" height="21" viewBox="0 0 36 21" width="36" xmlns="http://www.w3.org/2000/svg"><path d="m18.0988 20.7306h2.0946s.6332-.0701.9552-.4185c.298-.3199.287-.9202.287-.9202s-.0416-2.811 1.2642-3.225c1.2861-.4076 2.938 2.7167 4.6886 3.9195 1.3233.9093 2.3289.7099 2.3289.7099l4.6821-.0657s2.4494-.1512 1.2882-2.077c-.0942-.1578-.677-1.4241-3.4814-4.027-2.9358-2.7255-2.5414-2.2829.9947-6.99561 2.1537-2.87012 3.0147-4.62286 2.7453-5.37216-.2564-.71425-1.8404-.52583-1.8404-.52583l-5.267.03068s-.39-.05258-.6814.1205c-.2826.17089-.4645.56526-.4645.56526s-.8347 2.2216-1.9477 4.11018c-2.3465 3.98528-3.2864 4.19568-3.6698 3.94808-.8917-.57623-.6683-2.31802-.6683-3.55371 0-3.86261.585-5.47294-1.1414-5.88922-.574-.138028-.9947-.230047-2.4604-.245383-1.8799-.019719-3.4727.006573-4.3731.446953-.6004.29358-1.0626.94867-.78.98592.3483.04601 1.1371.21252 1.5556.78216.5411.73396.5214 2.38592.5214 2.38592s.3111 4.54618-.7252 5.11146c-.7121.3878-1.687-.4032-3.7794-4.02038-1.07132-1.85133-1.88197-3.89985-1.88197-3.89985s-.15555-.38122-.4338-.58498c-.33741-.24758-.81065-.32645-.81065-.32645l-5.00846.03067s-.75149.02191-1.02755.34836c-.245383.2914-.01972.89171-.01972.89171s3.92177 9.17342 8.36059 13.79852c4.07296 4.2394 8.69576 3.9612 8.69576 3.9612z" fill="#1e88e5"/></svg>